<svg id="logo" xmlns="http://www.w3.org/2000/svg" viewBox="30 30 240 240"><title>Ansible-Mark-RGB</title><polygon points="140.692 148.221 182.438 181.102 154.799 112.893 140.692 148.221" fill="#fff"/><path d="M153,46.12714A106.79132,106.79132,0,1,0,259.79286,152.92,106.79751,106.79751,0,0,0,153,46.12714Zm43.82007,161.46533c-2.08093,0-3.67822-.81091-5.89673-2.60413l-55.1178-44.52991-18.46741,46.268h-15.9613L148.03346,94.51422a7.08784,7.08784,0,0,1,6.76587-4.51355,6.85643,6.85643,0,0,1,6.58521,4.51355l42.51025,102.30072a10.11133,10.11133,0,0,1,.72827,3.1488A7.62408,7.62408,0,0,1,196.82008,207.59247Z" fill="#fff"/></svg>
